<svg width="282" height="287" viewBox="0 0 282 287" fill="none" xmlns="http://www.w3.org/2000/svg">
<g clip-path="url(#clip0_7_32)">
<path fill-rule="evenodd" clip-rule="evenodd" d="M141.017 0L282 146.492L244.895 146.162L232.5 146.492L223.5 139.097L219 133.5L215.336 128.965H66.4164L55.6579 146.492H0L141.017 0ZM97.4258 95.6873H184.415L140.982 48.9436L97.4258 95.6873ZM89.0526 139.097V250.024H139.501H141V258.69V287H44.5263V139.097H89.0526ZM244.895 139.097V146.162V287H163.263L161.693 284.298L166.974 268.512C161.693 284.298 161.665 284.288 161.665 284.288L161.637 284.279L161.58 284.259L161.461 284.218L161.208 284.128C161.034 284.065 160.847 283.994 160.647 283.914C160.249 283.756 159.803 283.564 159.317 283.333C158.344 282.871 155.972 281.432 155.972 281.432C155.972 281.432 150.666 277.35 148.05 273.874C145.013 269.838 142.557 264.821 141 258.69C140.321 256.017 139.813 253.132 139.501 250.024C139.303 248.047 139.185 245.979 139.153 243.819C139.145 243.752 139.137 243.683 139.129 243.613C139.021 242.703 138.901 241.47 138.821 240.003C138.666 237.145 138.645 233.037 139.339 228.544C140.607 220.332 145.518 204.94 162.924 200.604C168.473 199.221 175.312 198.734 181.441 198.554C187.874 198.366 194.778 198.494 201.01 198.733C202.695 198.797 199.419 198.654 201.01 198.733L200.368 139.097H223.5H244.895ZM200.368 235.234C198.391 235.129 201.871 235.316 199.727 235.234C193.9 235.011 187.817 234.908 182.423 235.066C177.979 235.196 180.234 234.889 178.105 235.234C180.155 236.863 178.038 235.509 178.105 235.234C177.871 236.749 178.028 237.514 178.105 238.931C178.142 239.602 178.068 240.934 178.105 241.252C178.121 241.385 178.099 241.207 178.105 241.252V246.327C178.105 250.966 177.509 248.323 178.105 250.024H200.368V235.234Z" fill="#FF0000"/>
<path d="M141 250.024H139.501C139.813 253.132 140.321 256.017 141 258.69V250.024Z" fill="#FF0000"/>
<path fill-rule="evenodd" clip-rule="evenodd" d="M44.5262 146.492H248.605V139.097H244.895V146.162L232.5 146.492L223.5 139.097H44.5262V146.492ZM66.7894 176.073H226.342V168.677H66.7894V176.073ZM66.7894 205.653H230.053V198.258H66.7894V205.653ZM66.7894 235.234H152.132V227.839H66.7894V235.234Z" fill="#FF0000"/>
<path d="M244.895 146.162V139.097H223.5L232.5 146.492L244.895 146.162Z" fill="#FF0000"/>
</g>
<defs>
<clipPath id="clip0_7_32">
<rect width="282" height="287" fill="white"/>
</clipPath>
</defs>
</svg>
